<svg xmlns="http://www.w3.org/2000/svg" xmlns:xlink="http://www.w3.org/1999/xlink" width="500" zoomAndPan="magnify" viewBox="0 0 375 374.999991" height="500" preserveAspectRatio="xMidYMid meet" version="1.0"><defs><g/><clipPath id="a102fb7b9d"><path d="M 45.625 13.832031 L 329.375 13.832031 L 329.375 257.855469 L 45.625 257.855469 Z M 45.625 13.832031 " clip-rule="nonzero"/></clipPath></defs><g fill="#ffffff" fill-opacity="1"><g transform="translate(41.677187, 335.691677)"><g><path d="M 4.5625 -62.75 L 27 -62.75 C 33.03125 -62.75 37.945312 -61.140625 41.75 -57.921875 C 45.5625 -54.703125 47.46875 -50.097656 47.46875 -44.109375 C 47.46875 -39.492188 46.3125 -35.628906 44 -32.515625 C 41.695312 -29.398438 38.566406 -27.207031 34.609375 -25.9375 L 56.203125 0 L 38.03125 0 L 18.859375 -24.796875 L 18.859375 0 L 4.5625 0 Z M 18.859375 -34.90625 L 20.53125 -34.90625 C 21.851562 -34.90625 22.96875 -34.929688 23.875 -34.984375 C 24.789062 -35.035156 25.832031 -35.210938 27 -35.515625 C 28.164062 -35.828125 29.101562 -36.257812 29.8125 -36.8125 C 30.519531 -37.375 31.128906 -38.1875 31.640625 -39.25 C 32.148438 -40.3125 32.40625 -41.601562 32.40625 -43.125 C 32.40625 -44.644531 32.148438 -45.9375 31.640625 -47 C 31.128906 -48.070312 30.519531 -48.882812 29.8125 -49.4375 C 29.101562 -50 28.164062 -50.429688 27 -50.734375 C 25.832031 -51.035156 24.789062 -51.210938 23.875 -51.265625 C 22.96875 -51.316406 21.851562 -51.34375 20.53125 -51.34375 L 18.859375 -51.34375 Z M 18.859375 -34.90625 "/></g></g></g><g fill="#ffffff" fill-opacity="1"><g transform="translate(96.134935, 335.691677)"><g><path d="M 44.046875 -17.640625 L 15.75 -17.640625 C 15.75 -14.910156 16.632812 -12.882812 18.40625 -11.5625 C 20.175781 -10.238281 22.101562 -9.578125 24.1875 -9.578125 C 26.363281 -9.578125 28.085938 -9.867188 29.359375 -10.453125 C 30.628906 -11.035156 32.078125 -12.191406 33.703125 -13.921875 L 43.4375 -9.046875 C 39.375 -2.253906 32.628906 1.140625 23.203125 1.140625 C 17.316406 1.140625 12.269531 -0.875 8.0625 -4.90625 C 3.851562 -8.9375 1.75 -13.789062 1.75 -19.46875 C 1.75 -25.144531 3.851562 -30.007812 8.0625 -34.0625 C 12.269531 -38.125 17.316406 -40.15625 23.203125 -40.15625 C 29.390625 -40.15625 34.421875 -38.367188 38.296875 -34.796875 C 42.171875 -31.222656 44.109375 -26.113281 44.109375 -19.46875 C 44.109375 -18.5625 44.085938 -17.953125 44.046875 -17.640625 Z M 16.125 -25.09375 L 30.953125 -25.09375 C 30.648438 -27.125 29.851562 -28.679688 28.5625 -29.765625 C 27.269531 -30.859375 25.609375 -31.40625 23.578125 -31.40625 C 21.347656 -31.40625 19.570312 -30.820312 18.25 -29.65625 C 16.9375 -28.5 16.226562 -26.976562 16.125 -25.09375 Z M 16.125 -25.09375 "/></g></g></g><g fill="#ffffff" fill-opacity="1"><g transform="translate(141.998091, 335.691677)"><g><path d="M 25.328125 -29.125 C 22.796875 -29.125 20.613281 -28.1875 18.78125 -26.3125 C 16.957031 -24.4375 16.046875 -22.179688 16.046875 -19.546875 C 16.046875 -16.859375 16.957031 -14.578125 18.78125 -12.703125 C 20.613281 -10.828125 22.796875 -9.890625 25.328125 -9.890625 C 26.546875 -9.890625 27.695312 -10.039062 28.78125 -10.34375 C 29.875 -10.644531 30.675781 -10.945312 31.1875 -11.25 L 31.875 -11.71875 L 36.4375 -2.359375 C 36.082031 -2.109375 35.585938 -1.789062 34.953125 -1.40625 C 34.316406 -1.03125 32.867188 -0.515625 30.609375 0.140625 C 28.359375 0.804688 25.9375 1.140625 23.34375 1.140625 C 17.613281 1.140625 12.582031 -0.875 8.25 -4.90625 C 3.914062 -8.9375 1.75 -13.765625 1.75 -19.390625 C 1.75 -25.078125 3.914062 -29.957031 8.25 -34.03125 C 12.582031 -38.113281 17.613281 -40.15625 23.34375 -40.15625 C 25.9375 -40.15625 28.320312 -39.847656 30.5 -39.234375 C 32.675781 -38.628906 34.222656 -38.023438 35.140625 -37.421875 L 36.4375 -36.515625 L 31.875 -27.3125 C 30.195312 -28.519531 28.015625 -29.125 25.328125 -29.125 Z M 25.328125 -29.125 "/></g></g></g><g fill="#ffffff" fill-opacity="1"><g transform="translate(179.342727, 335.691677)"><g><path d="M 34.15625 -39.015625 L 49.671875 -39.015625 L 19.015625 19.78125 L 3.5 19.78125 L 16.96875 -6.078125 L -1.515625 -39.015625 L 14 -39.015625 L 24.875 -19.015625 Z M 34.15625 -39.015625 "/></g></g></g><g fill="#ffffff" fill-opacity="1"><g transform="translate(227.487646, 335.691677)"><g><path d="M 25.328125 -29.125 C 22.796875 -29.125 20.613281 -28.1875 18.78125 -26.3125 C 16.957031 -24.4375 16.046875 -22.179688 16.046875 -19.546875 C 16.046875 -16.859375 16.957031 -14.578125 18.78125 -12.703125 C 20.613281 -10.828125 22.796875 -9.890625 25.328125 -9.890625 C 26.546875 -9.890625 27.695312 -10.039062 28.78125 -10.34375 C 29.875 -10.644531 30.675781 -10.945312 31.1875 -11.25 L 31.875 -11.71875 L 36.4375 -2.359375 C 36.082031 -2.109375 35.585938 -1.789062 34.953125 -1.40625 C 34.316406 -1.03125 32.867188 -0.515625 30.609375 0.140625 C 28.359375 0.804688 25.9375 1.140625 23.34375 1.140625 C 17.613281 1.140625 12.582031 -0.875 8.25 -4.90625 C 3.914062 -8.9375 1.75 -13.765625 1.75 -19.390625 C 1.75 -25.078125 3.914062 -29.957031 8.25 -34.03125 C 12.582031 -38.113281 17.613281 -40.15625 23.34375 -40.15625 C 25.9375 -40.15625 28.320312 -39.847656 30.5 -39.234375 C 32.675781 -38.628906 34.222656 -38.023438 35.140625 -37.421875 L 36.4375 -36.515625 L 31.875 -27.3125 C 30.195312 -28.519531 28.015625 -29.125 25.328125 -29.125 Z M 25.328125 -29.125 "/></g></g></g><g fill="#ffffff" fill-opacity="1"><g transform="translate(264.832282, 335.691677)"><g><path d="M 4.5625 0 L 4.5625 -65.40625 L 18.03125 -65.40625 L 18.03125 0 Z M 4.5625 0 "/></g></g></g><g fill="#ffffff" fill-opacity="1"><g transform="translate(287.421598, 335.691677)"><g><path d="M 44.046875 -17.640625 L 15.75 -17.640625 C 15.75 -14.910156 16.632812 -12.882812 18.40625 -11.5625 C 20.175781 -10.238281 22.101562 -9.578125 24.1875 -9.578125 C 26.363281 -9.578125 28.085938 -9.867188 29.359375 -10.453125 C 30.628906 -11.035156 32.078125 -12.191406 33.703125 -13.921875 L 43.4375 -9.046875 C 39.375 -2.253906 32.628906 1.140625 23.203125 1.140625 C 17.316406 1.140625 12.269531 -0.875 8.0625 -4.90625 C 3.851562 -8.9375 1.75 -13.789062 1.75 -19.46875 C 1.75 -25.144531 3.851562 -30.007812 8.0625 -34.0625 C 12.269531 -38.125 17.316406 -40.15625 23.203125 -40.15625 C 29.390625 -40.15625 34.421875 -38.367188 38.296875 -34.796875 C 42.171875 -31.222656 44.109375 -26.113281 44.109375 -19.46875 C 44.109375 -18.5625 44.085938 -17.953125 44.046875 -17.640625 Z M 16.125 -25.09375 L 30.953125 -25.09375 C 30.648438 -27.125 29.851562 -28.679688 28.5625 -29.765625 C 27.269531 -30.859375 25.609375 -31.40625 23.578125 -31.40625 C 21.347656 -31.40625 19.570312 -30.820312 18.25 -29.65625 C 16.9375 -28.5 16.226562 -26.976562 16.125 -25.09375 Z M 16.125 -25.09375 "/></g></g></g><g fill="#ffffff" fill-opacity="1"><g transform="translate(280.089831, 256.567007)"><g><path d="M 15.578125 -161.703125 C 19.765625 -165.890625 24.757812 -167.984375 30.5625 -167.984375 C 36.363281 -167.984375 41.351562 -165.890625 45.53125 -161.703125 C 49.71875 -157.523438 51.8125 -152.535156 51.8125 -146.734375 C 51.8125 -140.929688 49.71875 -135.9375 45.53125 -131.75 C 41.351562 -127.570312 36.363281 -125.484375 30.5625 -125.484375 C 24.757812 -125.484375 19.765625 -127.570312 15.578125 -131.75 C 11.398438 -135.9375 9.3125 -140.929688 9.3125 -146.734375 C 9.3125 -152.535156 11.398438 -157.523438 15.578125 -161.703125 Z M 12.140625 -103.828125 L 12.140625 0 L 47.96875 0 L 47.96875 -103.828125 Z M 12.140625 -103.828125 "/></g></g></g><g clip-path="url(#a102fb7b9d)"><path fill="#ffffff" d="M 186.421875 13.832031 L 45.902344 257.222656 L 182.003906 257.222656 L 218.945312 193.238281 L 198.175781 161.785156 L 189.746094 176.382812 L 162.539062 223.511719 L 104.296875 223.511719 L 186.664062 80.835938 L 270.152344 223.039062 L 230.046875 223.039062 L 213.191406 256.753906 L 329.035156 256.753906 Z M 186.421875 13.832031 " fill-opacity="1" fill-rule="nonzero"/></g></svg>