<svg xmlns="http://www.w3.org/2000/svg" xmlns:xlink="http://www.w3.org/1999/xlink" width="500" zoomAndPan="magnify" viewBox="0 0 375 374.999991" height="500" preserveAspectRatio="xMidYMid meet" version="1.0"><defs><g/><clipPath id="39ca075323"><path d="M 51.183594 20.636719 L 323.816406 20.636719 L 323.816406 255 L 51.183594 255 Z M 51.183594 20.636719 " clip-rule="nonzero"/></clipPath></defs><g fill="#000000" fill-opacity="1"><g transform="translate(47.390075, 329.885941)"><g><path d="M 4.390625 -60.296875 L 25.9375 -60.296875 C 31.738281 -60.296875 36.460938 -58.75 40.109375 -55.65625 C 43.765625 -52.5625 45.59375 -48.140625 45.59375 -42.390625 C 45.59375 -37.953125 44.484375 -34.234375 42.265625 -31.234375 C 40.054688 -28.242188 37.050781 -26.140625 33.25 -24.921875 L 54 0 L 36.546875 0 L 18.125 -23.828125 L 18.125 0 L 4.390625 0 Z M 18.125 -33.546875 L 19.734375 -33.546875 C 20.992188 -33.546875 22.0625 -33.566406 22.9375 -33.609375 C 23.820312 -33.660156 24.820312 -33.832031 25.9375 -34.125 C 27.0625 -34.414062 27.960938 -34.828125 28.640625 -35.359375 C 29.328125 -35.898438 29.910156 -36.679688 30.390625 -37.703125 C 30.878906 -38.734375 31.125 -39.976562 31.125 -41.4375 C 31.125 -42.894531 30.878906 -44.132812 30.390625 -45.15625 C 29.910156 -46.1875 29.328125 -46.96875 28.640625 -47.5 C 27.960938 -48.03125 27.0625 -48.441406 25.9375 -48.734375 C 24.820312 -49.035156 23.820312 -49.207031 22.9375 -49.25 C 22.0625 -49.300781 20.992188 -49.328125 19.734375 -49.328125 L 18.125 -49.328125 Z M 18.125 -33.546875 "/></g></g></g><g fill="#000000" fill-opacity="1"><g transform="translate(99.714337, 329.885941)"><g><path d="M 42.3125 -16.953125 L 15.125 -16.953125 C 15.125 -14.328125 15.976562 -12.378906 17.6875 -11.109375 C 19.394531 -9.835938 21.242188 -9.203125 23.234375 -9.203125 C 25.328125 -9.203125 26.984375 -9.484375 28.203125 -10.046875 C 29.421875 -10.609375 30.8125 -11.71875 32.375 -13.375 L 41.734375 -8.703125 C 37.828125 -2.171875 31.34375 1.09375 22.28125 1.09375 C 16.632812 1.09375 11.789062 -0.835938 7.75 -4.703125 C 3.707031 -8.578125 1.6875 -13.242188 1.6875 -18.703125 C 1.6875 -24.160156 3.707031 -28.835938 7.75 -32.734375 C 11.789062 -36.628906 16.632812 -38.578125 22.28125 -38.578125 C 28.226562 -38.578125 33.066406 -36.859375 36.796875 -33.421875 C 40.523438 -29.992188 42.390625 -25.085938 42.390625 -18.703125 C 42.390625 -17.828125 42.363281 -17.242188 42.3125 -16.953125 Z M 15.5 -24.109375 L 29.75 -24.109375 C 29.445312 -26.054688 28.675781 -27.554688 27.4375 -28.609375 C 26.195312 -29.660156 24.601562 -30.1875 22.65625 -30.1875 C 20.507812 -30.1875 18.800781 -29.625 17.53125 -28.5 C 16.269531 -27.375 15.59375 -25.910156 15.5 -24.109375 Z M 15.5 -24.109375 "/></g></g></g><g fill="#000000" fill-opacity="1"><g transform="translate(143.780717, 329.885941)"><g><path d="M 24.328125 -27.984375 C 21.898438 -27.984375 19.804688 -27.082031 18.046875 -25.28125 C 16.296875 -23.476562 15.421875 -21.3125 15.421875 -18.78125 C 15.421875 -16.195312 16.296875 -14.003906 18.046875 -12.203125 C 19.804688 -10.398438 21.898438 -9.5 24.328125 -9.5 C 25.503906 -9.5 26.613281 -9.644531 27.65625 -9.9375 C 28.707031 -10.226562 29.476562 -10.519531 29.96875 -10.8125 L 30.625 -11.25 L 35 -2.265625 C 34.664062 -2.023438 34.191406 -1.71875 33.578125 -1.34375 C 32.972656 -0.976562 31.582031 -0.484375 29.40625 0.140625 C 27.238281 0.773438 24.914062 1.09375 22.4375 1.09375 C 16.925781 1.09375 12.085938 -0.835938 7.921875 -4.703125 C 3.765625 -8.578125 1.6875 -13.222656 1.6875 -18.640625 C 1.6875 -24.085938 3.765625 -28.769531 7.921875 -32.6875 C 12.085938 -36.613281 16.925781 -38.578125 22.4375 -38.578125 C 24.914062 -38.578125 27.203125 -38.285156 29.296875 -37.703125 C 31.398438 -37.117188 32.890625 -36.535156 33.765625 -35.953125 L 35 -35.078125 L 30.625 -26.234375 C 29.007812 -27.398438 26.910156 -27.984375 24.328125 -27.984375 Z M 24.328125 -27.984375 "/></g></g></g><g fill="#000000" fill-opacity="1"><g transform="translate(179.662307, 329.885941)"><g><path d="M 32.8125 -37.484375 L 47.71875 -37.484375 L 18.265625 19 L 3.359375 19 L 16.296875 -5.84375 L -1.46875 -37.484375 L 13.453125 -37.484375 L 23.890625 -18.265625 Z M 32.8125 -37.484375 "/></g></g></g><g fill="#000000" fill-opacity="1"><g transform="translate(225.921058, 329.885941)"><g><path d="M 24.328125 -27.984375 C 21.898438 -27.984375 19.804688 -27.082031 18.046875 -25.28125 C 16.296875 -23.476562 15.421875 -21.3125 15.421875 -18.78125 C 15.421875 -16.195312 16.296875 -14.003906 18.046875 -12.203125 C 19.804688 -10.398438 21.898438 -9.5 24.328125 -9.5 C 25.503906 -9.5 26.613281 -9.644531 27.65625 -9.9375 C 28.707031 -10.226562 29.476562 -10.519531 29.96875 -10.8125 L 30.625 -11.25 L 35 -2.265625 C 34.664062 -2.023438 34.191406 -1.71875 33.578125 -1.34375 C 32.972656 -0.976562 31.582031 -0.484375 29.40625 0.140625 C 27.238281 0.773438 24.914062 1.09375 22.4375 1.09375 C 16.925781 1.09375 12.085938 -0.835938 7.921875 -4.703125 C 3.765625 -8.578125 1.6875 -13.222656 1.6875 -18.640625 C 1.6875 -24.085938 3.765625 -28.769531 7.921875 -32.6875 C 12.085938 -36.613281 16.925781 -38.578125 22.4375 -38.578125 C 24.914062 -38.578125 27.203125 -38.285156 29.296875 -37.703125 C 31.398438 -37.117188 32.890625 -36.535156 33.765625 -35.953125 L 35 -35.078125 L 30.625 -26.234375 C 29.007812 -27.398438 26.910156 -27.984375 24.328125 -27.984375 Z M 24.328125 -27.984375 "/></g></g></g><g fill="#000000" fill-opacity="1"><g transform="translate(261.802647, 329.885941)"><g><path d="M 4.390625 0 L 4.390625 -62.84375 L 17.3125 -62.84375 L 17.3125 0 Z M 4.390625 0 "/></g></g></g><g fill="#000000" fill-opacity="1"><g transform="translate(283.506984, 329.885941)"><g><path d="M 42.3125 -16.953125 L 15.125 -16.953125 C 15.125 -14.328125 15.976562 -12.378906 17.6875 -11.109375 C 19.394531 -9.835938 21.242188 -9.203125 23.234375 -9.203125 C 25.328125 -9.203125 26.984375 -9.484375 28.203125 -10.046875 C 29.421875 -10.609375 30.8125 -11.71875 32.375 -13.375 L 41.734375 -8.703125 C 37.828125 -2.171875 31.34375 1.09375 22.28125 1.09375 C 16.632812 1.09375 11.789062 -0.835938 7.75 -4.703125 C 3.707031 -8.578125 1.6875 -13.242188 1.6875 -18.703125 C 1.6875 -24.160156 3.707031 -28.835938 7.75 -32.734375 C 11.789062 -36.628906 16.632812 -38.578125 22.28125 -38.578125 C 28.226562 -38.578125 33.066406 -36.859375 36.796875 -33.421875 C 40.523438 -29.992188 42.390625 -25.085938 42.390625 -18.703125 C 42.390625 -17.828125 42.363281 -17.242188 42.3125 -16.953125 Z M 15.5 -24.109375 L 29.75 -24.109375 C 29.445312 -26.054688 28.675781 -27.554688 27.4375 -28.609375 C 26.195312 -29.660156 24.601562 -30.1875 22.65625 -30.1875 C 20.507812 -30.1875 18.800781 -29.625 17.53125 -28.5 C 16.269531 -27.375 15.59375 -25.910156 15.5 -24.109375 Z M 15.5 -24.109375 "/></g></g></g><g fill="#000000" fill-opacity="1"><g transform="translate(276.462466, 253.861221)"><g><path d="M 14.96875 -155.359375 C 18.988281 -159.378906 23.785156 -161.390625 29.359375 -161.390625 C 34.929688 -161.390625 39.726562 -159.378906 43.75 -155.359375 C 47.769531 -151.347656 49.78125 -146.550781 49.78125 -140.96875 C 49.78125 -135.394531 47.769531 -130.597656 43.75 -126.578125 C 39.726562 -122.566406 34.929688 -120.5625 29.359375 -120.5625 C 23.785156 -120.5625 18.988281 -122.566406 14.96875 -126.578125 C 10.945312 -130.597656 8.9375 -135.394531 8.9375 -140.96875 C 8.9375 -146.550781 10.945312 -151.347656 14.96875 -155.359375 Z M 11.671875 -99.75 L 11.671875 0 L 46.078125 0 L 46.078125 -99.75 Z M 11.671875 -99.75 "/></g></g></g><g clip-path="url(#39ca075323)"><path fill="#ff3131" d="M 186.464844 20.636719 L 51.449219 254.492188 L 182.21875 254.492188 L 217.710938 193.015625 L 197.757812 162.792969 L 189.65625 176.820312 L 163.515625 222.101562 L 107.554688 222.101562 L 186.695312 85.015625 L 266.914062 221.648438 L 228.382812 221.648438 L 212.183594 254.039062 L 323.492188 254.039062 Z M 186.464844 20.636719 " fill-opacity="1" fill-rule="nonzero"/></g></svg>