<svg xmlns="http://www.w3.org/2000/svg" xmlns:xlink="http://www.w3.org/1999/xlink" width="500" zoomAndPan="magnify" viewBox="0 0 375 374.999991" height="500" preserveAspectRatio="xMidYMid meet" version="1.0"><defs><g/><clipPath id="17221365df"><path d="M 47 15.28125 L 328 15.28125 L 328 257.269531 L 47 257.269531 Z M 47 15.28125 " clip-rule="nonzero"/></clipPath></defs><g fill="#000000" fill-opacity="1"><g transform="translate(42.893321, 334.455795)"><g><path d="M 4.53125 -62.21875 L 26.78125 -62.21875 C 32.757812 -62.21875 37.632812 -60.617188 41.40625 -57.421875 C 45.175781 -54.234375 47.0625 -49.675781 47.0625 -43.75 C 47.0625 -39.164062 45.914062 -35.328125 43.625 -32.234375 C 41.34375 -29.148438 38.238281 -26.976562 34.3125 -25.71875 L 55.734375 0 L 37.703125 0 L 18.703125 -24.59375 L 18.703125 0 L 4.53125 0 Z M 18.703125 -34.625 L 20.359375 -34.625 C 21.671875 -34.625 22.78125 -34.644531 23.6875 -34.6875 C 24.59375 -34.738281 25.625 -34.914062 26.78125 -35.21875 C 27.9375 -35.519531 28.863281 -35.945312 29.5625 -36.5 C 30.269531 -37.050781 30.875 -37.851562 31.375 -38.90625 C 31.875 -39.96875 32.125 -41.253906 32.125 -42.765625 C 32.125 -44.273438 31.875 -45.554688 31.375 -46.609375 C 30.875 -47.660156 30.269531 -48.460938 29.5625 -49.015625 C 28.863281 -49.578125 27.9375 -50.007812 26.78125 -50.3125 C 25.625 -50.613281 24.59375 -50.785156 23.6875 -50.828125 C 22.78125 -50.878906 21.671875 -50.90625 20.359375 -50.90625 L 18.703125 -50.90625 Z M 18.703125 -34.625 "/></g></g></g><g fill="#000000" fill-opacity="1"><g transform="translate(96.896904, 334.455795)"><g><path d="M 43.671875 -17.5 L 15.609375 -17.5 C 15.609375 -14.78125 16.488281 -12.765625 18.25 -11.453125 C 20.007812 -10.148438 21.921875 -9.5 23.984375 -9.5 C 26.148438 -9.5 27.859375 -9.785156 29.109375 -10.359375 C 30.367188 -10.941406 31.800781 -12.085938 33.40625 -13.796875 L 43.0625 -8.96875 C 39.039062 -2.238281 32.351562 1.125 23 1.125 C 17.164062 1.125 12.160156 -0.867188 7.984375 -4.859375 C 3.816406 -8.859375 1.734375 -13.671875 1.734375 -19.296875 C 1.734375 -24.929688 3.816406 -29.757812 7.984375 -33.78125 C 12.160156 -37.8125 17.164062 -39.828125 23 -39.828125 C 29.132812 -39.828125 34.125 -38.050781 37.96875 -34.5 C 41.820312 -30.957031 43.75 -25.894531 43.75 -19.3125 C 43.75 -18.40625 43.722656 -17.800781 43.671875 -17.5 Z M 15.984375 -24.890625 L 30.703125 -24.890625 C 30.398438 -26.898438 29.601562 -28.445312 28.3125 -29.53125 C 27.03125 -30.613281 25.382812 -31.15625 23.375 -31.15625 C 21.164062 -31.15625 19.40625 -30.578125 18.09375 -29.421875 C 16.789062 -28.265625 16.085938 -26.753906 15.984375 -24.890625 Z M 15.984375 -24.890625 "/></g></g></g><g fill="#000000" fill-opacity="1"><g transform="translate(142.377572, 334.455795)"><g><path d="M 25.109375 -28.890625 C 22.597656 -28.890625 20.4375 -27.957031 18.625 -26.09375 C 16.8125 -24.238281 15.90625 -22.003906 15.90625 -19.390625 C 15.90625 -16.722656 16.8125 -14.457031 18.625 -12.59375 C 20.4375 -10.738281 22.597656 -9.8125 25.109375 -9.8125 C 26.316406 -9.8125 27.460938 -9.957031 28.546875 -10.25 C 29.628906 -10.550781 30.421875 -10.851562 30.921875 -11.15625 L 31.609375 -11.609375 L 36.125 -2.34375 C 35.769531 -2.09375 35.28125 -1.773438 34.65625 -1.390625 C 34.03125 -1.015625 32.597656 -0.503906 30.359375 0.140625 C 28.117188 0.796875 25.71875 1.125 23.15625 1.125 C 17.46875 1.125 12.472656 -0.867188 8.171875 -4.859375 C 3.878906 -8.859375 1.734375 -13.648438 1.734375 -19.234375 C 1.734375 -24.867188 3.878906 -29.707031 8.171875 -33.75 C 12.472656 -37.800781 17.46875 -39.828125 23.15625 -39.828125 C 25.71875 -39.828125 28.078125 -39.523438 30.234375 -38.921875 C 32.398438 -38.316406 33.9375 -37.710938 34.84375 -37.109375 L 36.125 -36.203125 L 31.609375 -27.078125 C 29.941406 -28.285156 27.773438 -28.890625 25.109375 -28.890625 Z M 25.109375 -28.890625 "/></g></g></g><g fill="#000000" fill-opacity="1"><g transform="translate(179.410762, 334.455795)"><g><path d="M 33.859375 -38.6875 L 49.25 -38.6875 L 18.859375 19.609375 L 3.46875 19.609375 L 16.8125 -6.03125 L -1.515625 -38.6875 L 13.875 -38.6875 L 24.65625 -18.859375 Z M 33.859375 -38.6875 "/></g></g></g><g fill="#000000" fill-opacity="1"><g transform="translate(227.154163, 334.455795)"><g><path d="M 25.109375 -28.890625 C 22.597656 -28.890625 20.4375 -27.957031 18.625 -26.09375 C 16.8125 -24.238281 15.90625 -22.003906 15.90625 -19.390625 C 15.90625 -16.722656 16.8125 -14.457031 18.625 -12.59375 C 20.4375 -10.738281 22.597656 -9.8125 25.109375 -9.8125 C 26.316406 -9.8125 27.460938 -9.957031 28.546875 -10.25 C 29.628906 -10.550781 30.421875 -10.851562 30.921875 -11.15625 L 31.609375 -11.609375 L 36.125 -2.34375 C 35.769531 -2.09375 35.28125 -1.773438 34.65625 -1.390625 C 34.03125 -1.015625 32.597656 -0.503906 30.359375 0.140625 C 28.117188 0.796875 25.71875 1.125 23.15625 1.125 C 17.46875 1.125 12.472656 -0.867188 8.171875 -4.859375 C 3.878906 -8.859375 1.734375 -13.648438 1.734375 -19.234375 C 1.734375 -24.867188 3.878906 -29.707031 8.171875 -33.75 C 12.472656 -37.800781 17.46875 -39.828125 23.15625 -39.828125 C 25.71875 -39.828125 28.078125 -39.523438 30.234375 -38.921875 C 32.398438 -38.316406 33.9375 -37.710938 34.84375 -37.109375 L 36.125 -36.203125 L 31.609375 -27.078125 C 29.941406 -28.285156 27.773438 -28.890625 25.109375 -28.890625 Z M 25.109375 -28.890625 "/></g></g></g><g fill="#000000" fill-opacity="1"><g transform="translate(264.187354, 334.455795)"><g><path d="M 4.53125 0 L 4.53125 -64.859375 L 17.875 -64.859375 L 17.875 0 Z M 4.53125 0 "/></g></g></g><g fill="#000000" fill-opacity="1"><g transform="translate(286.58828, 334.455795)"><g><path d="M 43.671875 -17.5 L 15.609375 -17.5 C 15.609375 -14.78125 16.488281 -12.765625 18.25 -11.453125 C 20.007812 -10.148438 21.921875 -9.5 23.984375 -9.5 C 26.148438 -9.5 27.859375 -9.785156 29.109375 -10.359375 C 30.367188 -10.941406 31.800781 -12.085938 33.40625 -13.796875 L 43.0625 -8.96875 C 39.039062 -2.238281 32.351562 1.125 23 1.125 C 17.164062 1.125 12.160156 -0.867188 7.984375 -4.859375 C 3.816406 -8.859375 1.734375 -13.671875 1.734375 -19.296875 C 1.734375 -24.929688 3.816406 -29.757812 7.984375 -33.78125 C 12.160156 -37.8125 17.164062 -39.828125 23 -39.828125 C 29.132812 -39.828125 34.125 -38.050781 37.96875 -34.5 C 41.820312 -30.957031 43.75 -25.894531 43.75 -19.3125 C 43.75 -18.40625 43.722656 -17.800781 43.671875 -17.5 Z M 15.984375 -24.890625 L 30.703125 -24.890625 C 30.398438 -26.898438 29.601562 -28.445312 28.3125 -29.53125 C 27.03125 -30.613281 25.382812 -31.15625 23.375 -31.15625 C 21.164062 -31.15625 19.40625 -30.578125 18.09375 -29.421875 C 16.789062 -28.265625 16.085938 -26.753906 15.984375 -24.890625 Z M 15.984375 -24.890625 "/></g></g></g><g fill="#000000" fill-opacity="1"><g transform="translate(279.317653, 255.99107)"><g><path d="M 15.453125 -160.359375 C 19.597656 -164.503906 24.546875 -166.578125 30.296875 -166.578125 C 36.054688 -166.578125 41.007812 -164.503906 45.15625 -160.359375 C 49.300781 -156.210938 51.375 -151.257812 51.375 -145.5 C 51.375 -139.75 49.300781 -134.800781 45.15625 -130.65625 C 41.007812 -126.507812 36.054688 -124.4375 30.296875 -124.4375 C 24.546875 -124.4375 19.597656 -126.507812 15.453125 -130.65625 C 11.304688 -134.800781 9.234375 -139.75 9.234375 -145.5 C 9.234375 -151.257812 11.304688 -156.210938 15.453125 -160.359375 Z M 12.046875 -102.953125 L 12.046875 0 L 47.5625 0 L 47.5625 -102.953125 Z M 12.046875 -102.953125 "/></g></g></g><g clip-path="url(#17221365df)"><path fill="#000000" d="M 186.433594 15.28125 L 47.082031 257.347656 L 182.046875 257.347656 L 218.683594 193.710938 L 198.085938 162.425781 L 189.726562 176.945312 L 162.746094 223.816406 L 104.988281 223.816406 L 186.671875 81.921875 L 269.460938 223.347656 L 229.695312 223.347656 L 212.976562 256.878906 L 327.855469 256.878906 Z M 186.433594 15.28125 " fill-opacity="1" fill-rule="nonzero"/></g></svg>